<mxfile host="app.diagrams.net" agent="Mozilla/5.0 (Windows NT 10.0; Win64; x64) AppleWebKit/537.36 (KHTML, like Gecko) Chrome/129.0.0.0 Safari/537.36 Edg/129.0.0.0" version="24.7.17">
  <diagram name="Page-1" id="DRokCW5x6f1fHyudXtQQ">
    <mxGraphModel dx="1826" dy="1239" grid="0" gridSize="10" guides="1" tooltips="1" connect="1" arrows="1" fold="1" page="0" pageScale="1" pageWidth="827" pageHeight="1169" math="0" shadow="0">
      <root>
        <mxCell id="0" />
        <mxCell id="1" parent="0" />
        <mxCell id="iBJs5taElDhyduP1Qx6c-7" value="Lightbulb" style="sketch=0;outlineConnect=0;fontColor=#232F3E;gradientColor=none;strokeColor=#232F3E;fillColor=#ffffff;dashed=0;verticalLabelPosition=bottom;verticalAlign=top;align=center;html=1;fontSize=12;fontStyle=0;aspect=fixed;shape=mxgraph.aws4.resourceIcon;resIcon=mxgraph.aws4.lightbulb;" vertex="1" parent="1">
          <mxGeometry x="-258" y="277" width="60" height="60" as="geometry" />
        </mxCell>
        <mxCell id="iBJs5taElDhyduP1Qx6c-8" value="Thermostat" style="sketch=0;outlineConnect=0;fontColor=#232F3E;gradientColor=none;strokeColor=#232F3E;fillColor=#ffffff;dashed=0;verticalLabelPosition=bottom;verticalAlign=top;align=center;html=1;fontSize=12;fontStyle=0;aspect=fixed;shape=mxgraph.aws4.resourceIcon;resIcon=mxgraph.aws4.thermostat;" vertex="1" parent="1">
          <mxGeometry x="-186" y="274" width="60" height="60" as="geometry" />
        </mxCell>
        <mxCell id="iBJs5taElDhyduP1Qx6c-9" value="Utility" style="sketch=0;outlineConnect=0;fontColor=#232F3E;gradientColor=none;strokeColor=#232F3E;fillColor=#ffffff;dashed=0;verticalLabelPosition=bottom;verticalAlign=top;align=center;html=1;fontSize=12;fontStyle=0;aspect=fixed;shape=mxgraph.aws4.resourceIcon;resIcon=mxgraph.aws4.utility;" vertex="1" parent="1">
          <mxGeometry x="-111" y="277" width="60" height="60" as="geometry" />
        </mxCell>
        <mxCell id="iBJs5taElDhyduP1Qx6c-10" value="" style="sketch=0;points=[[0,0,0],[0.25,0,0],[0.5,0,0],[0.75,0,0],[1,0,0],[0,1,0],[0.25,1,0],[0.5,1,0],[0.75,1,0],[1,1,0],[0,0.25,0],[0,0.5,0],[0,0.75,0],[1,0.25,0],[1,0.5,0],[1,0.75,0]];outlineConnect=0;fontColor=#232F3E;fillColor=#E7157B;strokeColor=#ffffff;dashed=0;verticalLabelPosition=bottom;verticalAlign=top;align=center;html=1;fontSize=12;fontStyle=0;aspect=fixed;shape=mxgraph.aws4.resourceIcon;resIcon=mxgraph.aws4.appsync;" vertex="1" parent="1">
          <mxGeometry x="59" y="-100" width="86" height="86" as="geometry" />
        </mxCell>
        <mxCell id="iBJs5taElDhyduP1Qx6c-11" value="" style="shape=mxgraph.sap.icon;labelPosition=center;verticalLabelPosition=bottom;align=center;verticalAlign=top;strokeWidth=1;strokeColor=#D5DADD;fillColor=#EDEFF0;gradientColor=#FCFCFC;gradientDirection=west;aspect=fixed;SAPIcon=UI_Theme_Designer" vertex="1" parent="1">
          <mxGeometry x="-258" y="-132" width="150" height="150" as="geometry" />
        </mxCell>
        <mxCell id="iBJs5taElDhyduP1Qx6c-29" style="edgeStyle=none;curved=1;rounded=0;orthogonalLoop=1;jettySize=auto;html=1;fontSize=12;startSize=8;endSize=8;" edge="1" parent="1" source="iBJs5taElDhyduP1Qx6c-12">
          <mxGeometry relative="1" as="geometry">
            <mxPoint x="23" y="226" as="targetPoint" />
          </mxGeometry>
        </mxCell>
        <mxCell id="iBJs5taElDhyduP1Qx6c-12" value="" style="outlineConnect=0;dashed=0;verticalLabelPosition=bottom;verticalAlign=top;align=center;html=1;shape=mxgraph.aws3.lambda_function;fillColor=#F58534;gradientColor=none;" vertex="1" parent="1">
          <mxGeometry x="-62" y="79" width="170" height="109" as="geometry" />
        </mxCell>
        <mxCell id="iBJs5taElDhyduP1Qx6c-13" value="" style="sketch=0;points=[[0,0,0],[0.25,0,0],[0.5,0,0],[0.75,0,0],[1,0,0],[0,1,0],[0.25,1,0],[0.5,1,0],[0.75,1,0],[1,1,0],[0,0.25,0],[0,0.5,0],[0,0.75,0],[1,0.25,0],[1,0.5,0],[1,0.75,0]];outlineConnect=0;fontColor=#232F3E;fillColor=#C925D1;strokeColor=#ffffff;dashed=0;verticalLabelPosition=bottom;verticalAlign=top;align=center;html=1;fontSize=12;fontStyle=0;aspect=fixed;shape=mxgraph.aws4.resourceIcon;resIcon=mxgraph.aws4.dynamodb;" vertex="1" parent="1">
          <mxGeometry x="155" y="265" width="89" height="89" as="geometry" />
        </mxCell>
        <mxCell id="iBJs5taElDhyduP1Qx6c-16" value="" style="endArrow=classic;startArrow=classic;html=1;rounded=0;fontSize=12;startSize=8;endSize=8;curved=1;" edge="1" parent="1">
          <mxGeometry width="50" height="50" relative="1" as="geometry">
            <mxPoint x="-108" y="-60" as="sourcePoint" />
            <mxPoint x="62" y="-60" as="targetPoint" />
          </mxGeometry>
        </mxCell>
        <mxCell id="iBJs5taElDhyduP1Qx6c-23" value="" style="endArrow=classic;html=1;rounded=0;fontSize=12;startSize=8;endSize=8;curved=1;" edge="1" parent="1">
          <mxGeometry width="50" height="50" relative="1" as="geometry">
            <mxPoint x="198" y="221" as="sourcePoint" />
            <mxPoint x="200" y="262" as="targetPoint" />
          </mxGeometry>
        </mxCell>
        <mxCell id="iBJs5taElDhyduP1Qx6c-26" value="" style="endArrow=none;html=1;rounded=0;fontSize=12;startSize=8;endSize=8;curved=1;" edge="1" parent="1">
          <mxGeometry width="50" height="50" relative="1" as="geometry">
            <mxPoint x="-158" y="221" as="sourcePoint" />
            <mxPoint x="199" y="219" as="targetPoint" />
          </mxGeometry>
        </mxCell>
        <mxCell id="iBJs5taElDhyduP1Qx6c-27" value="" style="endArrow=classic;html=1;rounded=0;fontSize=12;startSize=8;endSize=8;curved=1;" edge="1" parent="1">
          <mxGeometry width="50" height="50" relative="1" as="geometry">
            <mxPoint x="-158" y="221" as="sourcePoint" />
            <mxPoint x="-160" y="268" as="targetPoint" />
          </mxGeometry>
        </mxCell>
        <mxCell id="iBJs5taElDhyduP1Qx6c-30" value="" style="endArrow=classic;html=1;rounded=0;fontSize=12;startSize=8;endSize=8;curved=1;exitX=0.5;exitY=1;exitDx=0;exitDy=0;exitPerimeter=0;" edge="1" parent="1" source="iBJs5taElDhyduP1Qx6c-10" target="iBJs5taElDhyduP1Qx6c-12">
          <mxGeometry width="50" height="50" relative="1" as="geometry">
            <mxPoint x="54" y="44" as="sourcePoint" />
            <mxPoint x="104" y="-6" as="targetPoint" />
          </mxGeometry>
        </mxCell>
        <mxCell id="iBJs5taElDhyduP1Qx6c-31" value="User interface" style="text;html=1;align=center;verticalAlign=middle;whiteSpace=wrap;rounded=0;fontSize=16;" vertex="1" parent="1">
          <mxGeometry x="-392" y="-98.5" width="108" height="83" as="geometry" />
        </mxCell>
        <mxCell id="iBJs5taElDhyduP1Qx6c-32" value="AWSLambda" style="text;html=1;align=center;verticalAlign=middle;whiteSpace=wrap;rounded=0;fontSize=16;" vertex="1" parent="1">
          <mxGeometry x="129" y="108.5" width="102" height="50" as="geometry" />
        </mxCell>
        <mxCell id="iBJs5taElDhyduP1Qx6c-33" value="AWS Appsync" style="text;html=1;align=center;verticalAlign=middle;whiteSpace=wrap;rounded=0;fontSize=16;" vertex="1" parent="1">
          <mxGeometry x="160" y="-72" width="74" height="38" as="geometry" />
        </mxCell>
        <mxCell id="iBJs5taElDhyduP1Qx6c-34" value="AWS IOT Core&amp;nbsp;" style="text;html=1;align=center;verticalAlign=middle;whiteSpace=wrap;rounded=0;fontSize=16;" vertex="1" parent="1">
          <mxGeometry x="-228" y="378" width="140" height="84" as="geometry" />
        </mxCell>
        <mxCell id="iBJs5taElDhyduP1Qx6c-36" value="DynamoDB" style="text;html=1;align=center;verticalAlign=middle;whiteSpace=wrap;rounded=0;fontSize=16;" vertex="1" parent="1">
          <mxGeometry x="148" y="395" width="120" height="50" as="geometry" />
        </mxCell>
      </root>
    </mxGraphModel>
  </diagram>
</mxfile>
